<svg width="1440" height="708" viewBox="0 0 1440 708" fill="none" xmlns="http://www.w3.org/2000/svg">
<g clip-path="url(#clip0_333_7800)">
<path d="M441.85 -0.879026L442.871 -0.914062L-538.883 979.999H-542.431L441.85 -0.879026Z" fill="url(#paint0_linear_333_7800)" fill-opacity="0.25"/>
<path d="M500.822 -2.24689L501.843 -2.2644L-334.834 979.998H-338.419L500.822 -2.24689Z" fill="url(#paint1_linear_333_7800)" fill-opacity="0.25"/>
<path d="M559.957 -3.59332L560.978 -3.61084L-128.783 980H-132.387L559.957 -3.59332Z" fill="url(#paint2_linear_333_7800)" fill-opacity="0.25"/>
<path d="M619.263 -4.96026L620.285 -4.97778L79.3152 979.999H75.6562L619.263 -4.96026Z" fill="url(#paint3_linear_333_7800)" fill-opacity="0.25"/>
<path d="M678.717 -6.31213L679.757 -6.34717L289.455 979.997H285.777L678.717 -6.31213Z" fill="url(#paint4_linear_333_7800)" fill-opacity="0.25"/>
<path d="M738.358 -7.69318L739.398 -7.71069L501.714 980H497.98L738.358 -7.69318Z" fill="url(#paint5_linear_333_7800)" fill-opacity="0.25"/>
<path d="M798.14 -9.06403L799.199 -9.08154L716.064 979.995H712.312L798.14 -9.06403Z" fill="url(#paint6_linear_333_7800)" fill-opacity="0.25"/>
<path d="M858.117 -10.4337L859.157 -10.4688L932.597 979.992H928.808L858.117 -10.4337Z" fill="url(#paint7_linear_333_7800)" fill-opacity="0.25"/>
<path d="M918.236 -11.8143L919.295 -11.8318L1151.31 979.995H1147.49L918.236 -11.8143Z" fill="url(#paint8_linear_333_7800)" fill-opacity="0.25"/>
<path d="M978.527 -13.1978L979.586 -13.2153L1372.25 979.995H1368.38L978.527 -13.1978Z" fill="url(#paint9_linear_333_7800)" fill-opacity="0.25"/>
<path d="M1039 -14.5814L1040.06 -14.6165L1595.46 979.996H1591.54L1039 -14.5814Z" fill="url(#paint10_linear_333_7800)" fill-opacity="0.25"/>
<path d="M1099.64 -15.9825L1100.7 -16L1820.94 979.996H1817.01L1099.64 -15.9825Z" fill="url(#paint11_linear_333_7800)" fill-opacity="0.25"/>
<path d="M-286.117 697.922L-282.681 694.594L1634.58 681.578L1637.16 685.029L-286.117 697.922Z" fill="url(#paint12_linear_333_7800)" fill-opacity="0.25"/>
<path d="M-118.307 534.708L-115.836 532.29L1509.58 515.053L1511.42 517.505L-118.307 534.708Z" fill="url(#paint13_linear_333_7800)" fill-opacity="0.25"/>
<path d="M5.67188 414.116L7.54775 412.294L1418.24 393.375L1419.61 395.214L5.67188 414.116Z" fill="url(#paint14_linear_333_7800)" fill-opacity="0.25"/>
<path d="M101.008 321.376L102.475 319.939L1348.57 300.564L1349.64 301.983L101.008 321.376Z" fill="url(#paint15_linear_333_7800)" fill-opacity="0.25"/>
<path d="M176.602 247.835L177.772 246.696L1293.68 227.444L1294.54 228.583L176.602 247.835Z" fill="url(#paint16_linear_333_7800)" fill-opacity="0.25"/>
<path d="M238.004 188.101L238.97 187.155L1249.33 168.341L1250.01 169.27L238.004 188.101Z" fill="url(#paint17_linear_333_7800)" fill-opacity="0.25"/>
<path d="M288.877 138.611L289.694 137.823L1212.72 119.587L1213.31 120.358L288.877 138.611Z" fill="url(#paint18_linear_333_7800)" fill-opacity="0.25"/>
<path d="M331.727 96.9557L332.414 96.29L1182.02 78.6846L1182.52 79.3327L331.727 96.9557Z" fill="url(#paint19_linear_333_7800)" fill-opacity="0.25"/>
<path d="M368.279 61.3794L368.874 60.8189L1155.89 43.8616L1156.31 44.4222L368.279 61.3794Z" fill="url(#paint20_linear_333_7800)" fill-opacity="0.25"/>
<path d="M399.855 30.6661L400.376 30.1756L1133.38 13.8665L1133.75 14.357L399.855 30.6661Z" fill="url(#paint21_linear_333_7800)" fill-opacity="0.25"/>
<path d="M427.402 3.88207L427.848 3.44412L1113.78 -12.2344L1114.1 -11.7964L427.402 3.88207Z" fill="url(#paint22_linear_333_7800)" fill-opacity="0.25"/>
</g>
<defs>
<linearGradient id="paint0_linear_333_7800" x1="-49.7796" y1="-0.914063" x2="-49.7796" y2="979.999" gradientUnits="userSpaceOnUse">
<stop stop-color="#423E62" stop-opacity="0.4"/>
<stop offset="0.526042" stop-color="#0A46FF" stop-opacity="0.67"/>
<stop offset="1" stop-color="#66D6DA" stop-opacity="0.25"/>
</linearGradient>
<linearGradient id="paint1_linear_333_7800" x1="81.7121" y1="-2.2644" x2="81.7121" y2="979.998" gradientUnits="userSpaceOnUse">
<stop stop-color="#423E62" stop-opacity="0.4"/>
<stop offset="0.526042" stop-color="#0A46FF" stop-opacity="0.67"/>
<stop offset="1" stop-color="#66D6DA" stop-opacity="0.25"/>
</linearGradient>
<linearGradient id="paint2_linear_333_7800" x1="214.296" y1="-3.61084" x2="214.296" y2="980" gradientUnits="userSpaceOnUse">
<stop stop-color="#423E62" stop-opacity="0.4"/>
<stop offset="0.526042" stop-color="#0A46FF" stop-opacity="0.67"/>
<stop offset="1" stop-color="#66D6DA" stop-opacity="0.25"/>
</linearGradient>
<linearGradient id="paint3_linear_333_7800" x1="347.971" y1="-4.97778" x2="347.971" y2="979.999" gradientUnits="userSpaceOnUse">
<stop stop-color="#423E62" stop-opacity="0.4"/>
<stop offset="0.526042" stop-color="#0A46FF" stop-opacity="0.67"/>
<stop offset="1" stop-color="#66D6DA" stop-opacity="0.25"/>
</linearGradient>
<linearGradient id="paint4_linear_333_7800" x1="482.767" y1="-6.34717" x2="482.767" y2="979.997" gradientUnits="userSpaceOnUse">
<stop stop-color="#423E62" stop-opacity="0.4"/>
<stop offset="0.526042" stop-color="#0A46FF" stop-opacity="0.67"/>
<stop offset="1" stop-color="#66D6DA" stop-opacity="0.25"/>
</linearGradient>
<linearGradient id="paint5_linear_333_7800" x1="618.689" y1="-7.71069" x2="618.689" y2="980" gradientUnits="userSpaceOnUse">
<stop stop-color="#423E62" stop-opacity="0.4"/>
<stop offset="0.526042" stop-color="#0A46FF" stop-opacity="0.67"/>
<stop offset="1" stop-color="#66D6DA" stop-opacity="0.25"/>
</linearGradient>
<linearGradient id="paint6_linear_333_7800" x1="755.756" y1="-9.08154" x2="755.756" y2="979.995" gradientUnits="userSpaceOnUse">
<stop stop-color="#423E62" stop-opacity="0.4"/>
<stop offset="0.526042" stop-color="#0A46FF" stop-opacity="0.67"/>
<stop offset="1" stop-color="#66D6DA" stop-opacity="0.25"/>
</linearGradient>
<linearGradient id="paint7_linear_333_7800" x1="895.357" y1="-10.4688" x2="895.357" y2="979.992" gradientUnits="userSpaceOnUse">
<stop stop-color="#423E62" stop-opacity="0.4"/>
<stop offset="0.526042" stop-color="#0A46FF" stop-opacity="0.67"/>
<stop offset="1" stop-color="#66D6DA" stop-opacity="0.25"/>
</linearGradient>
<linearGradient id="paint8_linear_333_7800" x1="1034.78" y1="-11.8318" x2="1034.78" y2="979.995" gradientUnits="userSpaceOnUse">
<stop stop-color="#423E62" stop-opacity="0.4"/>
<stop offset="0.526042" stop-color="#0A46FF" stop-opacity="0.67"/>
<stop offset="1" stop-color="#66D6DA" stop-opacity="0.25"/>
</linearGradient>
<linearGradient id="paint9_linear_333_7800" x1="1175.39" y1="-13.2153" x2="1175.39" y2="979.995" gradientUnits="userSpaceOnUse">
<stop stop-color="#423E62" stop-opacity="0.4"/>
<stop offset="0.526042" stop-color="#0A46FF" stop-opacity="0.67"/>
<stop offset="1" stop-color="#66D6DA" stop-opacity="0.25"/>
</linearGradient>
<linearGradient id="paint10_linear_333_7800" x1="1317.23" y1="-14.6165" x2="1317.23" y2="979.996" gradientUnits="userSpaceOnUse">
<stop stop-color="#423E62" stop-opacity="0.4"/>
<stop offset="0.526042" stop-color="#0A46FF" stop-opacity="0.67"/>
<stop offset="1" stop-color="#66D6DA" stop-opacity="0.25"/>
</linearGradient>
<linearGradient id="paint11_linear_333_7800" x1="1460.29" y1="-16" x2="1460.29" y2="979.996" gradientUnits="userSpaceOnUse">
<stop stop-color="#423E62" stop-opacity="0.4"/>
<stop offset="0.526042" stop-color="#0A46FF" stop-opacity="0.67"/>
<stop offset="1" stop-color="#66D6DA" stop-opacity="0.25"/>
</linearGradient>
<linearGradient id="paint12_linear_333_7800" x1="675.522" y1="681.578" x2="675.522" y2="697.922" gradientUnits="userSpaceOnUse">
<stop stop-color="#423E62" stop-opacity="0.4"/>
<stop offset="0.526042" stop-color="#0A46FF" stop-opacity="0.67"/>
<stop offset="1" stop-color="#66D6DA" stop-opacity="0.25"/>
</linearGradient>
<linearGradient id="paint13_linear_333_7800" x1="696.556" y1="515.053" x2="696.556" y2="534.708" gradientUnits="userSpaceOnUse">
<stop stop-color="#423E62" stop-opacity="0.4"/>
<stop offset="0.526042" stop-color="#0A46FF" stop-opacity="0.67"/>
<stop offset="1" stop-color="#66D6DA" stop-opacity="0.25"/>
</linearGradient>
<linearGradient id="paint14_linear_333_7800" x1="712.642" y1="393.375" x2="712.642" y2="414.116" gradientUnits="userSpaceOnUse">
<stop stop-color="#423E62" stop-opacity="0.4"/>
<stop offset="0.526042" stop-color="#0A46FF" stop-opacity="0.67"/>
<stop offset="1" stop-color="#66D6DA" stop-opacity="0.25"/>
</linearGradient>
<linearGradient id="paint15_linear_333_7800" x1="725.326" y1="300.564" x2="725.326" y2="321.376" gradientUnits="userSpaceOnUse">
<stop stop-color="#423E62" stop-opacity="0.4"/>
<stop offset="0.526042" stop-color="#0A46FF" stop-opacity="0.67"/>
<stop offset="1" stop-color="#66D6DA" stop-opacity="0.25"/>
</linearGradient>
<linearGradient id="paint16_linear_333_7800" x1="735.569" y1="227.444" x2="735.569" y2="247.835" gradientUnits="userSpaceOnUse">
<stop stop-color="#423E62" stop-opacity="0.4"/>
<stop offset="0.526042" stop-color="#0A46FF" stop-opacity="0.67"/>
<stop offset="1" stop-color="#66D6DA" stop-opacity="0.25"/>
</linearGradient>
<linearGradient id="paint17_linear_333_7800" x1="744.009" y1="168.341" x2="744.009" y2="188.101" gradientUnits="userSpaceOnUse">
<stop stop-color="#423E62" stop-opacity="0.4"/>
<stop offset="0.526042" stop-color="#0A46FF" stop-opacity="0.67"/>
<stop offset="1" stop-color="#66D6DA" stop-opacity="0.25"/>
</linearGradient>
<linearGradient id="paint18_linear_333_7800" x1="751.095" y1="119.587" x2="751.095" y2="138.611" gradientUnits="userSpaceOnUse">
<stop stop-color="#423E62" stop-opacity="0.4"/>
<stop offset="0.526042" stop-color="#0A46FF" stop-opacity="0.67"/>
<stop offset="1" stop-color="#66D6DA" stop-opacity="0.25"/>
</linearGradient>
<linearGradient id="paint19_linear_333_7800" x1="757.123" y1="78.6846" x2="757.123" y2="96.9557" gradientUnits="userSpaceOnUse">
<stop stop-color="#423E62" stop-opacity="0.4"/>
<stop offset="0.526042" stop-color="#0A46FF" stop-opacity="0.67"/>
<stop offset="1" stop-color="#66D6DA" stop-opacity="0.25"/>
</linearGradient>
<linearGradient id="paint20_linear_333_7800" x1="762.296" y1="43.8616" x2="762.296" y2="61.3794" gradientUnits="userSpaceOnUse">
<stop stop-color="#423E62" stop-opacity="0.4"/>
<stop offset="0.526042" stop-color="#0A46FF" stop-opacity="0.67"/>
<stop offset="1" stop-color="#66D6DA" stop-opacity="0.25"/>
</linearGradient>
<linearGradient id="paint21_linear_333_7800" x1="766.801" y1="13.8665" x2="766.801" y2="30.6661" gradientUnits="userSpaceOnUse">
<stop stop-color="#423E62" stop-opacity="0.4"/>
<stop offset="0.526042" stop-color="#0A46FF" stop-opacity="0.67"/>
<stop offset="1" stop-color="#66D6DA" stop-opacity="0.25"/>
</linearGradient>
<linearGradient id="paint22_linear_333_7800" x1="770.751" y1="-12.2344" x2="770.751" y2="3.88207" gradientUnits="userSpaceOnUse">
<stop stop-color="#423E62" stop-opacity="0.4"/>
<stop offset="0.526042" stop-color="#0A46FF" stop-opacity="0.67"/>
<stop offset="1" stop-color="#66D6DA" stop-opacity="0.25"/>
</linearGradient>
<clipPath id="clip0_333_7800">
<rect width="1440" height="957" fill="white"/>
</clipPath>
</defs>
</svg>
